<svg id="Layer_1" data-name="Layer 1" xmlns="http://www.w3.org/2000/svg" xmlns:xlink="http://www.w3.org/1999/xlink" viewBox="0 0 78.17 18.65"><defs><style>.cls-1{fill:url(#linear-gradient);}.cls-2{fill:url(#linear-gradient-2);}.cls-3{fill:#fff;}.cls-4{fill:#8b8c8e;}</style><linearGradient id="linear-gradient" x1="-934.97" y1="-891.38" x2="-934.97" y2="-872.01" gradientTransform="translate(944.3 891.16)" gradientUnits="userSpaceOnUse"><stop offset="0" stop-color="#a6a8ab"/><stop offset="0.23" stop-color="#d0d2d3"/><stop offset="0.5" stop-color="#929497"/><stop offset="0.77" stop-color="#d0d2d3"/><stop offset="1" stop-color="#a6a8ab"/></linearGradient><linearGradient id="linear-gradient-2" x1="-934.97" y1="-872.72" x2="-934.97" y2="-890.6" gradientTransform="translate(944.3 891.16)" gradientUnits="userSpaceOnUse"><stop offset="0.1" stop-color="#c6cce7"/><stop offset="0.16" stop-color="#a4b6db"/><stop offset="0.31" stop-color="#4f7fbc"/><stop offset="0.44" stop-color="#034ea1"/><stop offset="1" stop-color="#034ea1"/></linearGradient></defs><title>5giay-mau</title><rect class="cls-1" width="18.65" height="18.65"/><rect class="cls-2" x="0.43" y="0.43" width="17.79" height="17.79"/><path class="cls-3" d="M13.5,3H6.88s-.26,0-.56.63a15.18,15.18,0,0,0-.79,4.13c-.07,1.49.17,1.52.35,1.68a1.14,1.14,0,0,0,.84.25c.33,0,1-.37,1.42-.48a4.22,4.22,0,0,1,2.39-.07,2.17,2.17,0,0,1,1.29,1.27,1.53,1.53,0,0,1-1.27,1.95,3.59,3.59,0,0,1-3.1-.46q-.77-.64-1-.35a14.49,14.49,0,0,0-1.27,1.9c-.18.41,0,.51.36.76s1.78,1.22,4.87.87,4.21-2.1,4.44-3.43a3.43,3.43,0,0,0-2.92-4.29A6.16,6.16,0,0,0,9,7.31c-.15,0-.74.21-.81-.13a2.44,2.44,0,0,1,.3-1.52C8.86,5,9,5,9.85,4.89a20.44,20.44,0,0,1,3.43.2c.35.07.48.17.64-.46a8,8,0,0,0,.25-1.3c0-.12.07-.33-.54-.33"/><path class="cls-4" d="M29.82,13.8V7.28h-7s-1.25,0-1.43.95c-.06.35,0,4.89,0,4.89a1,1,0,0,0,.4.72c.4.28.5.22,1.16.22h5.66l0,1.56A.55.55,0,0,1,28,16c-.51,0-6.63,0-6.63,0v.88h6.81a2,2,0,0,0,1.19-.29,1.81,1.81,0,0,0,.48-.62C29.86,15.91,29.82,13.8,29.82,13.8Zm-1.28-.51s-4.49,0-5.28,0-.73-.4-.73-.46,0-3.54,0-4.2.75-.55.75-.55h5.26Z"/><rect class="cls-4" x="32.22" y="7.17" width="1.34" height="6.91"/><rect class="cls-4" x="32.22" y="4.8" width="1.34" height="1.08"/><path class="cls-4" d="M43,7.23s-5.4,0-6.12,0c-1.09.06-1.16,1.27-1.16,1.27v1h1.16a4.69,4.69,0,0,1,0-.87A.65.65,0,0,1,37.65,8h4.59a1.45,1.45,0,0,1,.64.18,1,1,0,0,1,.18.41v1.67H37.23a1.25,1.25,0,0,0-.95.26,1.1,1.1,0,0,0-.43.66,12,12,0,0,0,0,2c.12.45.38.48.53.61a3,3,0,0,0,.83.25H44.3V8.2C44.3,7.3,43,7.23,43,7.23Zm0,6s-4.9,0-5.5,0-.61-.35-.61-.35,0-.74,0-1.27.73-.51.73-.51H43Z"/><path class="cls-4" d="M47.85,7.3H46.69v5.86s0,.3.43.61a1.49,1.49,0,0,0,1.14.32c.59,0,5.64,0,5.64,0v1.4s0,.26-.33.46a1.06,1.06,0,0,1-.69.12c-.21,0-6.19,0-6.19,0v.79h7.21a1.31,1.31,0,0,0,.82-.3,1.2,1.2,0,0,0,.41-.63c0-.12,0-8.63,0-8.63H53.87v5.95H48.43s-.41,0-.51-.24a1.8,1.8,0,0,1-.07-.83C47.87,11.77,47.85,7.3,47.85,7.3Z"/><rect class="cls-4" x="57.72" y="12.81" width="1.62" height="1.24"/><polygon class="cls-4" points="59.73 7.29 58.33 7.29 62.36 14.05 63.55 14.05 67.61 7.29 66.23 7.29 62.97 12.81 59.73 7.29"/><path class="cls-4" d="M69.67,7.2V14H71V8H76.3a1.08,1.08,0,0,1,.43.1c.1.08.25.1.25.36V14h1.19V8.24a.85.85,0,0,0-.4-.71A1.92,1.92,0,0,0,77,7.2Z"/><path class="cls-4" d="M50.51,15.82h0Z"/><path class="cls-4" d="M50.06,15.85l.11,0-.11,0Z"/><path class="cls-4" d="M49.51,16.07h.09a.47.47,0,0,1,.34-.21A.49.49,0,0,0,49.51,16.07Z"/></svg>